<mxfile host="Electron" modified="2023-12-10T18:42:15.435Z" agent="Mozilla/5.0 (Windows NT 10.0; Win64; x64) AppleWebKit/537.36 (KHTML, like Gecko) draw.io/22.1.2 Chrome/114.0.5735.289 Electron/25.9.4 Safari/537.36" etag="pXgxb2rZmkk8dKqvnsqK" version="22.1.2" type="device">
  <diagram name="Page-1" id="0bqidfSPnTq8Fe0qsqAd">
    <mxGraphModel dx="576" dy="337" grid="1" gridSize="10" guides="1" tooltips="1" connect="1" arrows="1" fold="1" page="1" pageScale="1" pageWidth="850" pageHeight="1100" math="1" shadow="0">
      <root>
        <mxCell id="0" />
        <mxCell id="1" parent="0" />
        <mxCell id="9ch1fulaxmRVOtPrEN44-8" value="No" style="edgeStyle=orthogonalEdgeStyle;rounded=0;orthogonalLoop=1;jettySize=auto;html=1;exitX=0;exitY=0.75;exitDx=0;exitDy=0;entryX=0.788;entryY=-0.008;entryDx=0;entryDy=0;fontColor=default;labelBackgroundColor=default;entryPerimeter=0;" edge="1" parent="1" source="9ch1fulaxmRVOtPrEN44-2" target="9ch1fulaxmRVOtPrEN44-3">
          <mxGeometry x="-0.4611" relative="1" as="geometry">
            <mxPoint as="offset" />
          </mxGeometry>
        </mxCell>
        <mxCell id="9ch1fulaxmRVOtPrEN44-10" value="Yes" style="edgeStyle=orthogonalEdgeStyle;rounded=0;orthogonalLoop=1;jettySize=auto;html=1;exitX=0;exitY=0.25;exitDx=0;exitDy=0;entryX=1;entryY=0.25;entryDx=0;entryDy=0;fontColor=default;labelBackgroundColor=default;" edge="1" parent="1" source="9ch1fulaxmRVOtPrEN44-2" target="9ch1fulaxmRVOtPrEN44-9">
          <mxGeometry x="-0.5" relative="1" as="geometry">
            <mxPoint as="offset" />
          </mxGeometry>
        </mxCell>
        <mxCell id="9ch1fulaxmRVOtPrEN44-2" value="Is the model smooth? (\(C^1\)-continuous)" style="rounded=0;whiteSpace=wrap;html=1;fillColor=#F2CC8F;strokeColor=#E07A5F;fontColor=#393C56;labelBackgroundColor=none;" vertex="1" parent="1">
          <mxGeometry x="540" y="280" width="120" height="60" as="geometry" />
        </mxCell>
        <mxCell id="9ch1fulaxmRVOtPrEN44-3" value="&lt;b&gt;Surrogate Model&lt;/b&gt;&lt;br&gt;&lt;div style=&quot;text-align: left;&quot;&gt;&lt;font&gt;Relatively easy;&lt;/font&gt;&lt;font&gt;&amp;nbsp;but&lt;/font&gt;&lt;/div&gt;&lt;div style=&quot;text-align: left;&quot;&gt;&lt;font&gt;doesn&#39;t scale to high-dimensional models&lt;/font&gt;&lt;/div&gt;" style="rounded=0;whiteSpace=wrap;html=1;fillColor=#b1ddf0;strokeColor=#10739e;labelBackgroundColor=none;" vertex="1" parent="1">
          <mxGeometry x="390" y="360" width="140" height="60" as="geometry" />
        </mxCell>
        <mxCell id="9ch1fulaxmRVOtPrEN44-12" value="No" style="edgeStyle=orthogonalEdgeStyle;rounded=0;orthogonalLoop=1;jettySize=auto;html=1;exitX=0;exitY=0.75;exitDx=0;exitDy=0;fontColor=default;labelBackgroundColor=default;" edge="1" parent="1" source="9ch1fulaxmRVOtPrEN44-9">
          <mxGeometry x="-0.6171" relative="1" as="geometry">
            <mxPoint x="300" y="390" as="targetPoint" />
            <mxPoint as="offset" />
          </mxGeometry>
        </mxCell>
        <mxCell id="9ch1fulaxmRVOtPrEN44-16" value="Yes" style="edgeStyle=orthogonalEdgeStyle;rounded=0;orthogonalLoop=1;jettySize=auto;html=1;exitX=0;exitY=0.25;exitDx=0;exitDy=0;entryX=1;entryY=0.25;entryDx=0;entryDy=0;fontColor=default;labelBackgroundColor=default;" edge="1" parent="1" source="9ch1fulaxmRVOtPrEN44-9" target="9ch1fulaxmRVOtPrEN44-15">
          <mxGeometry x="-0.5" relative="1" as="geometry">
            <mxPoint as="offset" />
          </mxGeometry>
        </mxCell>
        <mxCell id="9ch1fulaxmRVOtPrEN44-9" value="Can you provide gradient / adjoint + sparsity info?" style="rounded=0;whiteSpace=wrap;html=1;fillColor=#F2CC8F;strokeColor=#E07A5F;fontColor=#393C56;labelBackgroundColor=none;" vertex="1" parent="1">
          <mxGeometry x="340" y="280" width="120" height="60" as="geometry" />
        </mxCell>
        <mxCell id="9ch1fulaxmRVOtPrEN44-11" value="&lt;b style=&quot;border-color: var(--border-color);&quot;&gt;Run as True Black-Box&lt;/b&gt;&lt;br style=&quot;border-color: var(--border-color);&quot;&gt;&lt;div style=&quot;border-color: var(--border-color); text-align: left;&quot;&gt;&lt;font style=&quot;border-color: var(--border-color);&quot;&gt;(finite-diff, dense)&lt;/font&gt;&lt;/div&gt;&lt;div style=&quot;border-color: var(--border-color); text-align: left;&quot;&gt;&lt;font style=&quot;border-color: var(--border-color);&quot;&gt;Easy to implement;&lt;/font&gt;&lt;font style=&quot;border-color: var(--border-color);&quot;&gt;&amp;nbsp;but&lt;/font&gt;&lt;/div&gt;&lt;div style=&quot;border-color: var(--border-color); text-align: left;&quot;&gt;&lt;font style=&quot;border-color: var(--border-color);&quot;&gt;sacrifices all speedups&lt;/font&gt;&lt;/div&gt;" style="rounded=0;whiteSpace=wrap;html=1;fillColor=#b1ddf0;strokeColor=#10739e;labelBackgroundColor=none;" vertex="1" parent="1">
          <mxGeometry x="130" y="360" width="140" height="60" as="geometry" />
        </mxCell>
        <mxCell id="9ch1fulaxmRVOtPrEN44-15" value="&lt;b&gt;Define model as a new primitive, run as-is&lt;/b&gt;&lt;br&gt;&lt;div style=&quot;text-align: left;&quot;&gt;Traceable; but t&lt;span style=&quot;background-color: initial;&quot;&gt;edious coding, minor speed loss&lt;/span&gt;&lt;/div&gt;" style="rounded=0;whiteSpace=wrap;html=1;fillColor=#b1ddf0;strokeColor=#10739e;labelBackgroundColor=none;align=center;" vertex="1" parent="1">
          <mxGeometry x="130" y="280" width="140" height="60" as="geometry" />
        </mxCell>
        <mxCell id="9ch1fulaxmRVOtPrEN44-19" value="" style="endArrow=classic;html=1;rounded=0;entryX=1;entryY=0.5;entryDx=0;entryDy=0;fontColor=default;labelBackgroundColor=default;" edge="1" parent="1" target="9ch1fulaxmRVOtPrEN44-11">
          <mxGeometry width="50" height="50" relative="1" as="geometry">
            <mxPoint x="300" y="390" as="sourcePoint" />
            <mxPoint x="320" y="340" as="targetPoint" />
          </mxGeometry>
        </mxCell>
        <mxCell id="9ch1fulaxmRVOtPrEN44-20" value="" style="endArrow=classic;html=1;rounded=0;entryX=0;entryY=0.5;entryDx=0;entryDy=0;fontColor=default;labelBackgroundColor=default;" edge="1" parent="1" target="9ch1fulaxmRVOtPrEN44-3">
          <mxGeometry width="50" height="50" relative="1" as="geometry">
            <mxPoint x="300" y="390" as="sourcePoint" />
            <mxPoint x="360" y="330" as="targetPoint" />
          </mxGeometry>
        </mxCell>
        <mxCell id="9ch1fulaxmRVOtPrEN44-24" style="edgeStyle=orthogonalEdgeStyle;rounded=0;orthogonalLoop=1;jettySize=auto;html=1;exitX=0.5;exitY=1;exitDx=0;exitDy=0;exitPerimeter=0;entryX=0.5;entryY=0;entryDx=0;entryDy=0;fontColor=#393C56;" edge="1" parent="1" source="9ch1fulaxmRVOtPrEN44-23" target="9ch1fulaxmRVOtPrEN44-2">
          <mxGeometry relative="1" as="geometry" />
        </mxCell>
        <mxCell id="9ch1fulaxmRVOtPrEN44-23" value="Start" style="strokeWidth=2;html=1;shape=mxgraph.flowchart.start_1;whiteSpace=wrap;strokeColor=#82b366;fillColor=#d5e8d4;" vertex="1" parent="1">
          <mxGeometry x="575" y="220" width="50" height="30" as="geometry" />
        </mxCell>
      </root>
    </mxGraphModel>
  </diagram>
</mxfile>
